

<svg xmlns="http://www.w3.org/2000/svg" version="1.1" xmlns:xlink="http://www.w3.org/1999/xlink" xmlns:svgjs="http://svgjs.com/svgjs" width="24" height="24">
<svg version="1.0" xmlns="http://www.w3.org/2000/svg"
 width="24" height="24" viewBox="0 0 151.000000 132.000000"
 preserveAspectRatio="xMidYMid meet">

<g transform="translate(0.000000,132.000000) scale(0.100000,-0.100000)"
fill="#000000" stroke="none">
<path d="M257 795 c-141 -283 -257 -522 -257 -530 0 -13 43 -15 323 -15 l323
0 27 55 27 55 -265 0 -265 0 172 345 c95 190 175 345 178 345 3 0 124 -237
269 -527 l264 -528 212 430 212 430 -31 63 -31 63 -181 -363 -182 -363 -263
528 c-145 290 -266 527 -269 527 -3 0 -121 -232 -263 -515z"/>
</g>
</svg>
<style>@media (prefers-color-scheme: light) { :root { filter: none; } }
@media (prefers-color-scheme: dark) { :root { filter: invert(100%); } }
</style></svg>
